
	<svg xmlns="http://www.w3.org/2000/svg" xmlns:xlink="http://www.w3.org/1999/xlink" version="1.1" width="128" height="128" viewBox="0 0 100 100">


		<defs>
			<g id="background">
<path fill="url(#background-gradient)" stroke="none" d=" M 100 18.85 Q 100 14.45 97 11.45 93.9 8.35 89.6 8.35 L 27.1 8.35 Q 22.8 8.35 19.8 11.45 16.7 14.55 16.7 18.85 L 16.7 21.05 10.3 21.05 Q 8.9 21.05 7.8 22.05 6.8 23.15 6.8 24.55 6.8 25.95 7.8 27.05 8.9 28.05 10.3 28.05 L 22.6 28.05 Q 24 28.05 25.1 29.05 26.1 30.15 26.1 31.55 26.1 32.95 25.1 34.05 24 35.05 22.6 35.05 L 3.5 35.05 Q 2.1 35.05 1 36.05 0 37.05 0 38.55 0 39.95 1 41.05 2.1 42.05 3.5 42.05 L 16.7 42.05 16.7 61.05 10.3 61.05 Q 8.9 61.05 7.8 62.05 6.8 63.15 6.8 64.55 6.8 65.95 7.8 67.05 8.9 68.05 10.3 68.05 L 32.6 68.05 Q 34 68.05 35.1 69.05 36.1 70.15 36.1 71.55 36.1 72.95 35.1 74.05 34 75.05 32.6 75.05 L 16.7 75.05 16.7 81.25 Q 16.7 85.55 19.8 88.65 22.8 91.65 27.1 91.65 L 89.6 91.65 Q 94 91.65 97 88.65 100 85.65 100 81.25 L 100 18.85 Z"/>
</g><mask id="mask">
<path fill="#FFFFFF" stroke="none" d=" M 100 18.85 Q 100 14.45 97 11.45 93.9 8.35 89.6 8.35 L 27.1 8.35 Q 22.8 8.35 19.8 11.45 16.7 14.55 16.7 18.85 L 16.7 21.05 10.3 21.05 Q 8.9 21.05 7.8 22.05 6.8 23.15 6.8 24.55 6.8 25.95 7.8 27.05 8.9 28.05 10.3 28.05 L 22.6 28.05 Q 24 28.05 25.1 29.05 26.1 30.15 26.1 31.55 26.1 32.95 25.1 34.05 24 35.05 22.6 35.05 L 3.5 35.05 Q 2.1 35.05 1 36.05 0 37.05 0 38.55 0 39.95 1 41.05 2.1 42.05 3.5 42.05 L 16.7 42.05 16.7 61.05 10.3 61.05 Q 8.9 61.05 7.8 62.05 6.8 63.15 6.8 64.55 6.8 65.95 7.8 67.05 8.9 68.05 10.3 68.05 L 32.6 68.05 Q 34 68.05 35.1 69.05 36.1 70.15 36.1 71.55 36.1 72.95 35.1 74.05 34 75.05 32.6 75.05 L 16.7 75.05 16.7 81.25 Q 16.7 85.55 19.8 88.65 22.8 91.65 27.1 91.65 L 89.6 91.65 Q 94 91.65 97 88.65 100 85.65 100 81.25 L 100 18.85 Z"/>
</mask>
			
	<linearGradient id="background-gradient" x1="0" y1="0" y2="1" x2="0" gradientTransform="rotate(215 0.5 0.5)">
		<stop stop-color="#8ef378" offset="0%"/>
		<stop stop-color="#1cbbb4" offset="100%"/>
	</linearGradient>

			
			
			<g transform="scale(3.4482758620689653) translate(-0.5 -0.5)" id="picture"><path d="M25 .5H5C2.5.5.5 2.5.5 5v20c0 2.5 2 4.5 4.5 4.5h20c2.5 0 4.5-2 4.5-4.5V5c0-2.5-2-4.5-4.5-4.5zm0 13h-9.5V11c0-.3-.2-.5-.5-.5s-.5.2-.5.5v2.5H5c-.3 0-.5-.2-.5-.5 0-.7.1-1.4.2-2l3.2.9H8c.2 0 .4-.1.5-.4.1-.3-.1-.5-.3-.6L4.9 10c.4-1.1.9-2.1 1.5-3l2.7 2c.1.1.2.1.3.1.2 0 .3-.1.4-.2.2-.2.2-.5-.1-.7L7 6.2c.8-1 1.8-1.8 3-2.4l1.5 3.1c.1.2.3.3.5.3h.2c.3-.1.4-.4.2-.7l-1.5-3.1c1.1-.5 2.3-.7 3.6-.8V6c0 .3.2.5.5.5s.5-.2.5-.5V2.5c1.3.1 2.5.3 3.6.8l-1.4 3.1c-.1.3 0 .5.2.7h.2c.2 0 .4-.1.5-.3l1.4-3c1.1.6 2.1 1.4 3 2.4l-2.7 2c-.2.2-.3.5-.1.7.1.1.2.2.4.2.1 0 .2 0 .3-.1l2.7-2c.6.9 1.1 1.8 1.4 2.9L21.9 11c-.3.1-.4.4-.3.6.1.2.3.3.5.3h.2l3.1-1.1c.2.7.2 1.5.2 2.2-.1.3-.3.5-.6.5z"/></g>
			
	<linearGradient id="picture-gradient" x1="0" y1="0" y2="1" x2="0" >
		<stop stop-color="#202020" offset="0%"/>
		<stop stop-color="#202020" offset="100%"/>
	</linearGradient>

		</defs>

		

			<use xlink:href="#background" fill="url(#background-gradient)" />

		

			<g mask="url(#mask)">
				<g transform="
				        translate(
                                66 50
)
                            translate(30 15)  scale(1)  
                            translate(
                                -66 -50
)">
						<use xlink:href="#picture" fill="url(#picture-gradient)"  />
				</g>
			</g>

		



	</svg>
